<svg width="26" height="28" viewBox="0 0 26 28" fill="none" xmlns="http://www.w3.org/2000/svg">
<path d="M13.12 15.0701C9.75821 15.091 6.54009 16.4358 4.16291 18.813C1.78573 21.1902 0.440962 24.4083 0.419983 27.7701H25.8C25.7791 24.4117 24.437 21.1966 22.0642 18.82C19.6913 16.4434 16.4783 15.0963 13.12 15.0701Z" fill="white"/>
<path d="M13.13 14.05C16.9187 14.05 19.99 10.9787 19.99 7.19003C19.99 3.40136 16.9187 0.330017 13.13 0.330017C9.34134 0.330017 6.27002 3.40136 6.27002 7.19003C6.27002 10.9787 9.34134 14.05 13.13 14.05Z" fill="white"/>
<path d="M18.44 7.39008H13.44V2.39008C13.44 2.37151 13.4326 2.3537 13.4195 2.34058C13.4064 2.32745 13.3885 2.32007 13.37 2.32007C13.3514 2.32007 13.3336 2.32745 13.3205 2.34058C13.3074 2.3537 13.3 2.37151 13.3 2.39008V7.39008H8.29998C8.28054 7.39252 8.26268 7.402 8.24977 7.41675C8.23687 7.43149 8.22983 7.45047 8.22998 7.47006C8.22998 7.48863 8.23736 7.50643 8.25049 7.51956C8.26361 7.53269 8.28142 7.54007 8.29998 7.54007H13.3V12.5401C13.3 12.5586 13.3074 12.5764 13.3205 12.5896C13.3336 12.6027 13.3514 12.6101 13.37 12.6101C13.3885 12.6101 13.4064 12.6027 13.4195 12.5896C13.4326 12.5764 13.44 12.5586 13.44 12.5401V7.54007H18.44C18.4596 7.54022 18.4785 7.53317 18.4933 7.52026C18.508 7.50736 18.5175 7.4895 18.52 7.47006C18.5178 7.44959 18.5087 7.43048 18.4941 7.41592C18.4796 7.40137 18.4605 7.39225 18.44 7.39008Z" fill="#0C0C0C"/>
<path d="M13.4 12.67C13.3576 12.67 13.3169 12.6531 13.2869 12.6231C13.2569 12.5931 13.24 12.5524 13.24 12.51V7.62H8.36001C8.31925 7.62007 8.28 7.6046 8.25027 7.57672C8.22053 7.54885 8.20256 7.51068 8.20001 7.47C8.20001 7.42757 8.21687 7.38688 8.24687 7.35687C8.27688 7.32687 8.31758 7.31 8.36001 7.31H13.24V2.42001C13.24 2.37758 13.2569 2.33686 13.2869 2.30685C13.3169 2.27685 13.3576 2.26001 13.4 2.26001C13.4424 2.26001 13.4831 2.27685 13.5131 2.30685C13.5432 2.33686 13.56 2.37758 13.56 2.42001V7.31H18.44C18.4824 7.31 18.5231 7.32687 18.5531 7.35687C18.5832 7.38688 18.6 7.42757 18.6 7.47C18.5975 7.51068 18.5795 7.54885 18.5498 7.57672C18.52 7.6046 18.4808 7.62007 18.44 7.62H13.56V12.51C13.56 12.5524 13.5432 12.5931 13.5131 12.6231C13.4831 12.6531 13.4424 12.67 13.4 12.67Z" fill="#0C0C0C"/>
<path d="M18.17 7.16004H13.17V2.16004C13.17 2.14147 13.1626 2.12366 13.1495 2.11054C13.1364 2.09741 13.1186 2.09003 13.1 2.09003C13.0804 2.08988 13.0614 2.09693 13.0467 2.10984C13.032 2.12274 13.0225 2.1406 13.02 2.16004V7.16004H8.02001C8.00145 7.16004 7.98364 7.16742 7.97051 7.18054C7.95738 7.19367 7.95001 7.21148 7.95001 7.23004C7.95001 7.24861 7.95738 7.26642 7.97051 7.27954C7.98364 7.29267 8.00145 7.30005 8.02001 7.30005H13.02V12.3001C13.0222 12.3205 13.0313 12.3396 13.0459 12.3542C13.0604 12.3687 13.0795 12.3779 13.1 12.38C13.1195 12.3776 13.1373 12.3681 13.1502 12.3533C13.1631 12.3386 13.1702 12.3196 13.17 12.3001V7.30005H18.17C18.1886 7.30005 18.2064 7.29267 18.2195 7.27954C18.2326 7.26642 18.24 7.24861 18.24 7.23004C18.24 7.21148 18.2326 7.19367 18.2195 7.18054C18.2064 7.16742 18.1886 7.16004 18.17 7.16004Z" fill="#7873FF"/>
<path d="M13.13 12.39C13.0876 12.39 13.0469 12.3731 13.0168 12.3431C12.9868 12.3131 12.97 12.2724 12.97 12.23V7.35001H8.07998C8.03755 7.35001 7.99685 7.33314 7.96685 7.30313C7.93684 7.27313 7.91998 7.23244 7.91998 7.19C7.91998 7.14757 7.93684 7.10688 7.96685 7.07687C7.99685 7.04687 8.03755 7.03 8.07998 7.03H12.97V2.16C12.97 2.11757 12.9868 2.07688 13.0168 2.04688C13.0469 2.01687 13.0876 2 13.13 2C13.1707 2.00255 13.2088 2.02053 13.2367 2.05026C13.2646 2.08 13.2801 2.11925 13.28 2.16V7.04001H18.17C18.2124 7.04001 18.2531 7.05685 18.2831 7.08685C18.3131 7.11686 18.33 7.15758 18.33 7.20001C18.33 7.24245 18.3131 7.28313 18.2831 7.31314C18.2531 7.34315 18.2124 7.36002 18.17 7.36002H13.28V12.24C13.2776 12.279 13.2611 12.3158 13.2334 12.3434C13.2058 12.3711 13.169 12.3876 13.13 12.39Z" fill="#7873FF"/>
</svg>
