<svg width="31" height="31" viewBox="0 0 31 31" fill="none" xmlns="http://www.w3.org/2000/svg">
<path d="M15.238 30.49C23.4228 30.49 30.058 23.8548 30.058 15.67C30.058 7.48512 23.4228 0.849976 15.238 0.849976C7.05312 0.849976 0.417969 7.48512 0.417969 15.67C0.417969 23.8548 7.05312 30.49 15.238 30.49Z" fill="#1C1C1C"/>
<path d="M17.948 21.37V22.14C17.948 23.43 17.538 23.85 16.218 23.85H15.128C13.838 23.85 13.418 23.43 13.418 22.14V21.37C13.418 20.08 13.838 19.66 15.128 19.66H16.218C17.538 19.66 17.948 20.08 17.948 21.37ZM17.798 8.29999L17.408 17.74C17.408 18.35 17.208 18.57 16.598 18.57H14.798C14.168 18.57 13.988 18.35 13.968 17.74L13.618 8.29999C13.618 7.68999 13.838 7.48999 14.468 7.48999H16.948C17.578 7.48999 17.798 7.68999 17.798 8.29999Z" fill="#7873FF"/>
<path d="M16.9484 7.48999H14.4683C13.8383 7.48999 13.5983 7.68999 13.6183 8.29999L13.9683 17.74C13.9683 18.35 14.1683 18.57 14.7983 18.57H16.5983C17.2083 18.57 17.3783 18.35 17.4083 17.74L17.7983 8.29999C17.7983 7.68999 17.5784 7.48999 16.9484 7.48999Z" fill="#7873FF"/>
<path d="M17.278 21.37V22.14C17.278 23.43 16.858 23.85 15.548 23.85H14.4481C13.1581 23.85 12.748 23.43 12.748 22.14V21.37C12.748 20.08 13.1581 19.67 14.4481 19.67H15.548C16.858 19.67 17.278 20.08 17.278 21.37ZM17.118 8.29999L16.728 17.74C16.728 18.35 16.528 18.57 15.918 18.57H14.1281C13.4881 18.57 13.318 18.35 13.288 17.74L12.938 8.29999C12.938 7.68999 13.158 7.48999 13.798 7.48999H16.268C16.908 7.48999 17.148 7.68999 17.118 8.29999Z" fill="#0C0C0C"/>
<path d="M16.2686 7.48999H13.7986C13.1586 7.48999 12.9186 7.68999 12.9386 8.29999L13.2886 17.74C13.2886 18.35 13.4886 18.57 14.1286 18.57H15.9186C16.5286 18.57 16.7086 18.35 16.7286 17.74L17.1186 8.29999C17.1486 7.68999 16.9086 7.48999 16.2686 7.48999Z" fill="#0C0C0C"/>
<path d="M17.0574 21.37V22.14C17.0574 23.43 16.6473 23.85 15.3373 23.85H14.2374C12.9474 23.85 12.5273 23.43 12.5273 22.14V21.37C12.5273 20.08 12.9474 19.67 14.2374 19.67H15.3373C16.6473 19.67 17.0574 20.08 17.0574 21.37ZM16.9073 8.29999L16.5173 17.74C16.5173 18.35 16.3173 18.57 15.7073 18.57H13.9073C13.2773 18.57 13.0974 18.35 13.0774 17.74L12.7274 8.29999C12.7274 7.68999 12.9474 7.48999 13.5774 7.48999H16.0574C16.6874 7.48999 16.9273 7.68999 16.9073 8.29999Z" fill="white"/>
<path d="M16.0577 7.48999H13.5777C12.9477 7.48999 12.7077 7.68999 12.7277 8.29999L13.0777 17.74C13.0777 18.35 13.2777 18.57 13.9077 18.57H15.7077C16.3177 18.57 16.4977 18.35 16.5177 17.74L16.9077 8.29999C16.9277 7.68999 16.6877 7.48999 16.0577 7.48999Z" fill="white"/>
</svg>
