<svg width="10" height="28" viewBox="0 0 10 28" fill="none" xmlns="http://www.w3.org/2000/svg">
<path d="M9.67001 23.7V24.98C9.67001 27.15 8.97001 27.85 6.77001 27.85H4.93001C2.77001 27.85 2.07001 27.15 2.07001 24.98V23.7C2.07001 21.53 2.77001 20.83 4.93001 20.83H6.80001C8.97001 20.83 9.67001 21.53 9.67001 23.7ZM9.42001 1.77002L8.80001 17.6C8.80001 18.6 8.47001 19 7.45001 19H4.45001C3.39001 19 3.10001 18.63 3.06001 17.6L2.47001 1.77002C2.47001 0.77002 2.84001 0.410034 3.90001 0.410034H8.05001C9.05001 0.410034 9.45001 0.74002 9.42001 1.77002Z" fill="#7873FF"/>
<path d="M7.98002 0.410034H3.80002C2.74002 0.410034 2.33002 0.74002 2.37002 1.77002L2.96002 17.6C2.96002 18.6 3.29002 19 4.35002 19H7.35002C8.35002 19 8.67002 18.63 8.70002 17.6L9.37002 1.77002C9.45002 0.74002 9.05002 0.410034 7.98002 0.410034Z" fill="#7873FF"/>
<path d="M8.54 23.7V24.98C8.54 27.15 7.84 27.85 5.64 27.85H3.8C1.64 27.85 0.940002 27.15 0.940002 24.98V23.7C0.940002 21.53 1.64 20.83 3.8 20.83H5.64C7.8 20.83 8.54 21.53 8.54 23.7ZM8.28 1.77002L7.62 17.6C7.62 18.6 7.29 19 6.26 19H3.26C2.2 19 1.9 18.63 1.87 17.6L1.28 1.77002C1.28 0.77002 1.65 0.420044 2.71 0.420044H6.86C7.91 0.420044 8.32 0.75002 8.28 1.77002Z" fill="#0C0C0C"/>
<path d="M6.84998 0.420044H2.69998C1.63998 0.420044 1.22998 0.75002 1.26998 1.77002L1.85998 17.6C1.85998 18.6 2.18998 19 3.24998 19H6.24998C7.24998 19 7.56998 18.63 7.60998 17.6L8.26998 1.77002C8.31998 0.75002 7.90998 0.420044 6.84998 0.420044Z" fill="#0C0C0C"/>
<path d="M8.18002 23.7V24.98C8.18002 27.15 7.48002 27.85 5.28002 27.85H3.44002C1.28002 27.85 0.580017 27.15 0.580017 24.98V23.7C0.580017 21.53 1.28002 20.83 3.44002 20.83H5.28002C7.48002 20.83 8.18002 21.53 8.18002 23.7ZM7.92002 1.77002L7.26002 17.6C7.26002 18.6 6.93002 19 5.90002 19H2.90002C1.84002 19 1.54002 18.63 1.51002 17.6L0.920017 1.77002C0.920017 0.77002 1.29002 0.420044 2.35002 0.420044H6.50002C7.56002 0.420044 7.96002 0.75002 7.92002 1.77002Z" fill="white"/>
<path d="M6.49 0.420044H2.34C1.28 0.420044 0.869998 0.75002 0.909998 1.77002L1.5 17.6C1.5 18.6 1.83 19 2.89 19H5.89C6.89 19 7.22 18.63 7.25 17.6L7.91 1.77002C7.96 0.75002 7.56 0.420044 6.49 0.420044Z" fill="white"/>
</svg>