<svg width="63" height="32" viewBox="0 0 63 32" fill="none" xmlns="http://www.w3.org/2000/svg">
<path d="M0.530273 16.57C0.39514 16.5697 0.265676 16.5158 0.170288 16.42C0.0786746 16.3266 0.0273438 16.2009 0.0273438 16.07C0.0273438 15.9392 0.0786746 15.8135 0.170288 15.72L15.1703 0.720047C15.2168 0.673183 15.272 0.63598 15.333 0.610596C15.3939 0.585211 15.4593 0.572144 15.5253 0.572144C15.5913 0.572144 15.6566 0.585211 15.7176 0.610596C15.7785 0.63598 15.8338 0.673183 15.8803 0.720047C15.9719 0.813511 16.0232 0.939161 16.0232 1.07004C16.0232 1.20091 15.9719 1.32658 15.8803 1.42004L0.88028 16.42C0.787964 16.5143 0.662158 16.5682 0.530273 16.57Z" fill="white"/>
<path d="M15.5498 31.5901C15.4147 31.5897 15.2852 31.5358 15.1898 31.4401L0.189789 16.4401C0.0981754 16.3466 0.046875 16.2209 0.046875 16.0901C0.046875 15.9592 0.0981754 15.8335 0.189789 15.7401C0.23627 15.6932 0.291579 15.656 0.352509 15.6306C0.413438 15.6052 0.478794 15.5922 0.5448 15.5922C0.610806 15.5922 0.676161 15.6052 0.737091 15.6306C0.798021 15.656 0.853299 15.6932 0.89978 15.7401L15.8998 30.7401C15.992 30.8352 16.0436 30.9625 16.0436 31.0951C16.0436 31.2276 15.992 31.3549 15.8998 31.4501C15.8058 31.5406 15.6803 31.5908 15.5498 31.5901Z" fill="white"/>
<path d="M62.2303 16.5701H0.530273C0.397665 16.5701 0.270495 16.5174 0.176727 16.4236C0.0829591 16.3299 0.0302734 16.2027 0.0302734 16.0701C0.0302734 15.9375 0.0829591 15.8103 0.176727 15.7165C0.270495 15.6228 0.397665 15.5701 0.530273 15.5701H62.2303C62.3629 15.5701 62.4901 15.6228 62.5838 15.7165C62.6776 15.8103 62.7303 15.9375 62.7303 16.0701C62.7303 16.2027 62.6776 16.3299 62.5838 16.4236C62.4901 16.5174 62.3629 16.5701 62.2303 16.5701Z" fill="white"/>
</svg>
