<svg width="20" height="11" viewBox="0 0 20 11" fill="none" xmlns="http://www.w3.org/2000/svg">
<path d="M9.90006 10.22L0.630044 0.950018C0.577596 0.906478 0.534824 0.85248 0.504434 0.791464C0.474044 0.730448 0.456805 0.663763 0.453652 0.595671C0.4505 0.527579 0.461501 0.459572 0.486123 0.396009C0.510745 0.332447 0.548397 0.274722 0.596597 0.226522C0.644797 0.178322 0.702468 0.140709 0.76603 0.116087C0.829593 0.091465 0.897645 0.0803797 0.965737 0.0835323C1.03383 0.086685 1.10052 0.104008 1.16154 0.134398C1.22255 0.164787 1.27657 0.207576 1.32011 0.260023L9.90006 8.82002L18.5201 0.200018C18.614 0.122016 18.7338 0.0819126 18.8558 0.0875606C18.9777 0.0932087 19.0933 0.1442 19.1796 0.230551C19.266 0.316901 19.3169 0.432386 19.3225 0.554373C19.3282 0.67636 19.2881 0.796061 19.2101 0.89002L9.90006 10.22Z" fill="white"/>
</svg>
