<svg width="20" height="11" viewBox="0 0 20 11" fill="none" xmlns="http://www.w3.org/2000/svg">
<path d="M9.9401 0.130005L19.2101 9.40001C19.2881 9.49397 19.3282 9.61367 19.3225 9.73565C19.3169 9.85764 19.266 9.97312 19.1796 10.0595C19.0933 10.1458 18.9777 10.1968 18.8557 10.2025C18.7338 10.2081 18.614 10.168 18.5201 10.09L9.9401 1.51001L1.32011 10.13C1.22615 10.208 1.1064 10.2481 0.984412 10.2425C0.862425 10.2368 0.74691 10.1858 0.660559 10.0995C0.574209 10.0131 0.523263 9.89764 0.517615 9.77565C0.511967 9.65366 0.55204 9.53397 0.630042 9.44001L9.9401 0.130005Z" fill="white"/>
</svg>
