<svg width="19" height="19" viewBox="0 0 19 19" fill="none" xmlns="http://www.w3.org/2000/svg">
<path d="M1.11011 18.74C1.04334 18.6679 1.00623 18.5733 1.00623 18.475C1.00623 18.3767 1.04334 18.2821 1.11011 18.21L9.39014 9.93001L1.11011 1.65001C1.0385 1.5784 0.998291 1.48127 0.998291 1.38C0.998291 1.27874 1.0385 1.18161 1.11011 1.11C1.18172 1.03839 1.27886 0.998169 1.38013 0.998169C1.4814 0.998169 1.57848 1.03839 1.65009 1.11L9.93011 9.39001L18.2101 1.11C18.2822 1.04323 18.3768 1.00615 18.4751 1.00615C18.5734 1.00615 18.668 1.04323 18.7401 1.11C18.7758 1.14533 18.8041 1.18739 18.8234 1.23373C18.8428 1.28008 18.8527 1.32979 18.8527 1.38C18.8527 1.43022 18.8428 1.47993 18.8234 1.52628C18.8041 1.57262 18.7758 1.61468 18.7401 1.65001L10.4601 9.93001L18.7401 18.21C18.8104 18.2803 18.8499 18.3756 18.8499 18.475C18.8499 18.5744 18.8104 18.6697 18.7401 18.74C18.6698 18.8103 18.5745 18.8498 18.4751 18.8498C18.3757 18.8498 18.2804 18.8103 18.2101 18.74L9.93011 10.46L1.65009 18.74C1.61475 18.7757 1.57271 18.804 1.52637 18.8233C1.48002 18.8427 1.43034 18.8526 1.38013 18.8526C1.32991 18.8526 1.28017 18.8427 1.23383 18.8233C1.18748 18.804 1.14544 18.7757 1.11011 18.74Z" fill="#EF5466"/>
</svg>
