<svg width="31" height="31" viewBox="0 0 31 31" fill="none" xmlns="http://www.w3.org/2000/svg">
<path d="M0.300415 0.200027C0.421919 0.08093 0.585232 0.0142212 0.755371 0.0142212C0.92551 0.0142212 1.08882 0.08093 1.21033 0.200027L15.2103 14.2L29.2103 0.200027C29.3318 0.08093 29.4953 0.0142212 29.6654 0.0142212C29.8355 0.0142212 29.9989 0.08093 30.1204 0.200027C30.1802 0.258686 30.2278 0.328705 30.2603 0.405975C30.2927 0.483245 30.3094 0.56621 30.3094 0.650024C30.3094 0.733839 30.2927 0.816819 30.2603 0.894089C30.2278 0.971359 30.1802 1.04136 30.1204 1.10002L16.1204 15.1L30.1204 29.1C30.1802 29.1587 30.2278 29.2287 30.2603 29.306C30.2927 29.3832 30.3094 29.4662 30.3094 29.55C30.3094 29.6338 30.2927 29.7168 30.2603 29.7941C30.2278 29.8714 30.1802 29.9414 30.1204 30C29.9989 30.1191 29.8355 30.1858 29.6654 30.1858C29.4953 30.1858 29.3318 30.1191 29.2103 30L15.2103 16L1.21033 30C1.08882 30.1191 0.92551 30.1858 0.755371 30.1858C0.585232 30.1858 0.421919 30.1191 0.300415 30C0.240547 29.9414 0.192992 29.8714 0.160522 29.7941C0.128053 29.7168 0.111328 29.6338 0.111328 29.55C0.111328 29.4662 0.128053 29.3832 0.160522 29.306C0.192992 29.2287 0.240547 29.1587 0.300415 29.1L14.3004 15.1L0.300415 1.10002C0.240547 1.04136 0.192992 0.971359 0.160522 0.894089C0.128053 0.816819 0.111328 0.733839 0.111328 0.650024C0.111328 0.56621 0.128053 0.483245 0.160522 0.405975C0.192992 0.328705 0.240547 0.258686 0.300415 0.200027Z" fill="#EF5466"/>
</svg>
