<svg width="53" height="52" viewBox="0 0 53 52" fill="none" xmlns="http://www.w3.org/2000/svg">
<path d="M40.4601 0.0599976H12.64C5.98501 0.0599976 0.590057 5.45497 0.590057 12.11V39.93C0.590057 46.585 5.98501 51.98 12.64 51.98H40.4601C47.1151 51.98 52.51 46.585 52.51 39.93V12.11C52.51 5.45497 47.1151 0.0599976 40.4601 0.0599976Z" fill="#262626"/>
<path d="M29.72 20.7H14.94C13.7581 20.7 12.8 21.6581 12.8 22.84V37.62C12.8 38.8019 13.7581 39.76 14.94 39.76H29.72C30.9019 39.76 31.86 38.8019 31.86 37.62V22.84C31.86 21.6581 30.9019 20.7 29.72 20.7Z" fill="#7873FF"/>
<path d="M31.86 22.85V31.85H22.86C22.2994 31.8291 21.7694 31.589 21.3842 31.1813C20.9989 30.7735 20.7891 30.2308 20.8 29.67V20.67H29.8C30.3606 20.6908 30.8905 20.931 31.2758 21.3387C31.6611 21.7464 31.8709 22.2891 31.86 22.85Z" fill="#0C0C0C"/>
<path d="M38.16 12.26H23.38C22.1981 12.26 21.24 13.2181 21.24 14.4V29.18C21.24 30.3619 22.1981 31.32 23.38 31.32H38.16C39.3419 31.32 40.3 30.3619 40.3 29.18V14.4C40.3 13.2181 39.3419 12.26 38.16 12.26Z" fill="white"/>
</svg>
