<svg width="22" height="22" viewBox="0 0 22 22" fill="none" xmlns="http://www.w3.org/2000/svg">
<g opacity="1">
<path opacity="1" d="M13.68 6.80005H2.26001C1.34874 6.80005 0.609985 7.53877 0.609985 8.45004V19.87C0.609985 20.7813 1.34874 21.5201 2.26001 21.5201H13.68C14.5913 21.5201 15.33 20.7813 15.33 19.87V8.45004C15.33 7.53877 14.5913 6.80005 13.68 6.80005Z" fill="#7873FF"/>
<path opacity="1" d="M15.33 8.45001V15.38H8.40997C8.19198 15.38 7.97612 15.3371 7.77472 15.2537C7.57332 15.1702 7.39032 15.048 7.23618 14.8938C7.08203 14.7397 6.95977 14.5567 6.87634 14.3553C6.79292 14.1539 6.75 13.938 6.75 13.72V6.80002H13.67C13.8875 6.7987 14.1031 6.8404 14.3045 6.92273C14.5058 7.00506 14.6889 7.12639 14.8432 7.27974C14.9974 7.43309 15.1199 7.61543 15.2034 7.81627C15.287 8.01711 15.33 8.23249 15.33 8.45001Z" fill="#0C0C0C"/>
<path opacity="1" d="M20.2 0.280029H8.78C7.86873 0.280029 7.13 1.01875 7.13 1.93002V13.35C7.13 14.2613 7.86873 15 8.78 15H20.2C21.1113 15 21.85 14.2613 21.85 13.35V1.93002C21.85 1.01875 21.1113 0.280029 20.2 0.280029Z" fill="white"/>
</g>
</svg>
