<svg width="35" height="28" viewBox="0 0 35 28" fill="none" xmlns="http://www.w3.org/2000/svg">
<path d="M30.89 4.80999L30.79 5.80999V5.87999L28.67 26.63C28.6416 26.989 28.4841 27.3255 28.2267 27.5774C27.9694 27.8292 27.6295 27.9794 27.27 28H8.02997C7.67116 27.9773 7.33246 27.8265 7.0755 27.5751C6.81854 27.3236 6.66045 26.9882 6.63 26.63L4.51001 5.87999V5.80999L4.39996 4.80999C4.28996 3.67999 4.89 2.80999 5.75 2.80999H29.54C30.4 2.75999 31 3.67999 30.89 4.80999Z" fill="white"/>
<path d="M31.9 4.84997L31.8 5.89997H4.51001V5.82997L4.39996 4.82997C4.28996 3.69997 4.89 2.82997 5.75 2.82997H30.47C31.4 2.75997 32.03 3.69997 31.9 4.84997Z" fill="#0C0C0C"/>
<path d="M32.44 0.0100098H2.84998C1.84998 0.0100098 0.959961 0.600009 0.959961 1.32001V4.25001C0.959961 4.98001 1.80998 5.56001 2.84998 5.56001H32.44C33.44 5.56001 34.33 4.98001 34.33 4.25001V1.32001C34.33 0.600009 33.48 0.0100098 32.44 0.0100098Z" fill="white"/>
<path d="M13.4 25.02C13.2223 25.02 13.0519 24.9494 12.9262 24.8238C12.8006 24.6981 12.73 24.5277 12.73 24.35V9.48C12.73 9.3023 12.8006 9.13188 12.9262 9.00623C13.0519 8.88058 13.2223 8.81 13.4 8.81C13.5777 8.81 13.7481 8.88058 13.8738 9.00623C13.9994 9.13188 14.07 9.3023 14.07 9.48V24.35C14.07 24.438 14.0527 24.5251 14.019 24.6064C13.9853 24.6877 13.936 24.7615 13.8738 24.8238C13.8116 24.886 13.7377 24.9353 13.6564 24.969C13.5751 25.0027 13.4879 25.02 13.4 25.02Z" fill="#0C0C0C"/>
<path d="M17.8 25.02C17.6223 25.02 17.4519 24.9494 17.3262 24.8238C17.2006 24.6981 17.13 24.5277 17.13 24.35V9.48C17.13 9.3023 17.2006 9.13188 17.3262 9.00623C17.4519 8.88058 17.6223 8.81 17.8 8.81C17.9777 8.81 18.1481 8.88058 18.2737 9.00623C18.3994 9.13188 18.47 9.3023 18.47 9.48V24.35C18.47 24.5277 18.3994 24.6981 18.2737 24.8238C18.1481 24.9494 17.9777 25.02 17.8 25.02Z" fill="#0C0C0C"/>
<path d="M22.24 25.02C22.0623 25.02 21.8919 24.9494 21.7662 24.8238C21.6406 24.6981 21.57 24.5277 21.57 24.35V9.48C21.57 9.3023 21.6406 9.13188 21.7662 9.00623C21.8919 8.88058 22.0623 8.81 22.24 8.81C22.4177 8.81 22.5881 8.88058 22.7137 9.00623C22.8394 9.13188 22.91 9.3023 22.91 9.48V24.35C22.91 24.438 22.8927 24.5251 22.859 24.6064C22.8253 24.6877 22.776 24.7615 22.7137 24.8238C22.6515 24.886 22.5777 24.9353 22.4964 24.969C22.4151 25.0027 22.328 25.02 22.24 25.02Z" fill="#0C0C0C"/>
<path d="M13.05 24.68C12.8723 24.68 12.7019 24.6094 12.5762 24.4837C12.4506 24.3581 12.38 24.1877 12.38 24.01V9.15999C12.38 8.98229 12.4506 8.81188 12.5762 8.68623C12.7019 8.56058 12.8723 8.48999 13.05 8.48999C13.2277 8.48999 13.3981 8.56058 13.5237 8.68623C13.6494 8.81188 13.72 8.98229 13.72 9.15999V24.01C13.72 24.1877 13.6494 24.3581 13.5237 24.4837C13.3981 24.6094 13.2277 24.68 13.05 24.68Z" fill="#7873FF"/>
<path d="M17.47 24.68C17.2923 24.68 17.1219 24.6094 16.9962 24.4837C16.8706 24.3581 16.8 24.1877 16.8 24.01V9.15999C16.8 8.98229 16.8706 8.81188 16.9962 8.68623C17.1219 8.56058 17.2923 8.48999 17.47 8.48999C17.6477 8.48999 17.8181 8.56058 17.9437 8.68623C18.0694 8.81188 18.14 8.98229 18.14 9.15999V24.01C18.14 24.1877 18.0694 24.3581 17.9437 24.4837C17.8181 24.6094 17.6477 24.68 17.47 24.68Z" fill="#7873FF"/>
<path d="M21.89 24.68C21.7123 24.68 21.5418 24.6094 21.4162 24.4837C21.2905 24.3581 21.22 24.1877 21.22 24.01V9.15999C21.22 8.98229 21.2905 8.81188 21.4162 8.68623C21.5418 8.56058 21.7123 8.48999 21.89 8.48999C22.0677 8.48999 22.2381 8.56058 22.3638 8.68623C22.4894 8.81188 22.56 8.98229 22.56 9.15999V24.01C22.56 24.1877 22.4894 24.3581 22.3638 24.4837C22.2381 24.6094 22.0677 24.68 21.89 24.68Z" fill="#7873FF"/>
</svg>
