<svg width="26" height="30" viewBox="0 0 26 30" fill="none" xmlns="http://www.w3.org/2000/svg">
<path opacity="1" d="M23.93 29.02H1.74002C1.45439 29.0174 1.18119 28.9028 0.979218 28.7008C0.777241 28.4988 0.662612 28.2256 0.660004 27.94C0.660004 27.6535 0.77381 27.3788 0.976349 27.1763C1.17889 26.9738 1.45359 26.86 1.74002 26.86H23.93C24.0719 26.86 24.2123 26.8879 24.3433 26.9422C24.4743 26.9965 24.5934 27.076 24.6937 27.1763C24.794 27.2766 24.8736 27.3957 24.9278 27.5267C24.9821 27.6577 25.01 27.7982 25.01 27.94C25.01 28.0818 24.9821 28.2223 24.9278 28.3533C24.8736 28.4843 24.794 28.6034 24.6937 28.7037C24.5934 28.8039 24.4743 28.8835 24.3433 28.9378C24.2123 28.992 24.0719 29.02 23.93 29.02Z" fill="white"/>
<path opacity="1" fill-rule="evenodd" clip-rule="evenodd" d="M13.9102 21.55V1.90998H13.9502C13.9244 1.64275 13.8 1.39472 13.6012 1.21424C13.4025 1.03376 13.1437 0.933777 12.8752 0.933777C12.6068 0.933777 12.3479 1.03376 12.1491 1.21424C11.9504 1.39472 11.826 1.64275 11.8002 1.90998V21.5424L5.80002 15.52C5.59845 15.3184 5.32506 15.2052 5.04001 15.2052C4.75495 15.2052 4.48156 15.3184 4.28 15.52C4.07843 15.7216 3.96524 15.9949 3.96524 16.28C3.96524 16.5651 4.07843 16.8384 4.28 17.04H4.25003L12.07 24.87C12.1322 24.9268 12.2002 24.9759 12.2725 25.0167C12.3287 25.0545 12.3886 25.0871 12.4516 25.1138C12.64 25.1938 12.8475 25.2181 13.0493 25.1837C13.2511 25.1493 13.4388 25.0578 13.5902 24.92C13.6592 24.8527 13.7186 24.7764 13.7668 24.6934L21.4202 17.04H21.4602C21.6617 16.8384 21.775 16.5651 21.775 16.28C21.775 15.9949 21.6617 15.7216 21.4602 15.52C21.2586 15.3184 20.9853 15.2052 20.7002 15.2052C20.4152 15.2052 20.1418 15.3184 19.9402 15.52L13.9102 21.55Z" fill="#7873FF"/>
</svg>
