<svg width="40" height="21" viewBox="0 0 40 21" fill="none" xmlns="http://www.w3.org/2000/svg">
<path d="M1.66998 20.8199C1.53838 20.8207 1.40791 20.7955 1.28607 20.7457C1.16423 20.6959 1.05343 20.6226 0.959991 20.5299C0.773741 20.3426 0.669189 20.0891 0.669189 19.8249C0.669189 19.5608 0.773741 19.3073 0.959991 19.1199L19.96 0.119934L38.96 19.0699C39.1483 19.2582 39.2541 19.5136 39.2541 19.7799C39.2541 20.0462 39.1483 20.3016 38.96 20.4899C38.7717 20.6782 38.5163 20.784 38.25 20.784C37.9837 20.784 37.7283 20.6782 37.54 20.4899L20.01 2.91993L2.37 20.5499C2.18055 20.7274 1.92951 20.8242 1.66998 20.8199Z" fill="white"/>
</svg>
