<svg width="24" height="28" viewBox="0 0 24 28" fill="none" xmlns="http://www.w3.org/2000/svg">
<path d="M23.8 16.2598C23.8011 18.5541 23.1258 20.7979 21.8587 22.7105C20.5916 24.6231 18.7888 26.1198 16.6757 27.0135C14.5627 27.9072 12.2331 28.1581 9.97811 27.735C7.72317 27.312 5.64296 26.2337 3.99751 24.6348C2.35207 23.036 1.21439 20.9876 0.726715 18.7458C0.239036 16.5039 0.422988 14.1681 1.25557 12.0302C2.08816 9.89233 3.53244 8.04726 5.40787 6.72571C7.28329 5.40415 9.50666 4.66473 11.8 4.59985H12.09C12.38 4.59985 12.66 4.59985 12.95 4.59985C15.9 4.80527 18.6617 6.12382 20.6761 8.28864C22.6905 10.4534 23.8072 13.3028 23.8 16.2598Z" fill="white"/>
<path d="M12.99 4.62982V16.5699C13.0008 16.6518 12.9941 16.735 12.9701 16.814C12.9462 16.8931 12.9056 16.966 12.8512 17.0281C12.7967 17.0902 12.7297 17.14 12.6545 17.1741C12.5792 17.2082 12.4976 17.2259 12.415 17.2259C12.3324 17.2259 12.2508 17.2082 12.1756 17.1741C12.1004 17.14 12.0333 17.0902 11.9789 17.0281C11.9244 16.966 11.8839 16.8931 11.8599 16.814C11.836 16.735 11.8292 16.6518 11.84 16.5699V4.56982H12.13C12.42 4.59982 12.7 4.60982 12.99 4.62982Z" fill="#0C0C0C"/>
<path d="M12.13 16.8301C12.0543 16.8314 11.9791 16.8176 11.9088 16.7896C11.8385 16.7615 11.7744 16.7197 11.7205 16.6666C11.6665 16.6136 11.6236 16.5503 11.5943 16.4805C11.565 16.4107 11.55 16.3357 11.55 16.26V1.06006C11.5392 0.978186 11.546 0.894895 11.5699 0.815857C11.5938 0.736819 11.6344 0.66385 11.6888 0.601746C11.7433 0.539642 11.8103 0.489842 11.8855 0.45575C11.9608 0.421657 12.0424 0.404053 12.125 0.404053C12.2076 0.404053 12.2892 0.421657 12.3644 0.45575C12.4396 0.489842 12.5067 0.539642 12.5611 0.601746C12.6156 0.66385 12.6561 0.736819 12.6801 0.815857C12.704 0.894895 12.7108 0.978186 12.7 1.06006V16.26C12.7 16.4112 12.6399 16.5562 12.533 16.6631C12.4261 16.77 12.2812 16.8301 12.13 16.8301Z" fill="#7873FF"/>
</svg>
