<svg width="17" height="30" viewBox="0 0 17 30" fill="none" xmlns="http://www.w3.org/2000/svg">
<path d="M5.39209 29.6801C5.39209 29.4701 5.39209 29.26 5.39209 29.0501C5.39209 25.68 5.39209 22.3201 5.39209 18.9501C5.39209 18.2201 5.39203 17.4901 5.33203 16.7601C4.58203 16.7601 3.84204 16.6901 3.09204 16.6801C2.34204 16.6701 1.66211 16.6801 0.912109 16.6801V11.36H1.49207C2.58207 11.36 3.66208 11.36 4.75208 11.36C5.24207 11.36 5.43211 11.26 5.41211 10.73C5.41211 9.56004 5.41211 8.38009 5.41211 7.21009C5.36585 6.34741 5.50186 5.48465 5.81128 4.67804C6.1207 3.87144 6.59653 3.1391 7.20789 2.52869C7.81924 1.91828 8.55229 1.44349 9.35938 1.13532C10.1665 0.827143 11.0295 0.692457 11.8921 0.740054C13.0921 0.740054 14.3021 0.81009 15.5121 0.84009C15.9521 0.84009 16.1521 1.00006 16.1321 1.50006C16.1321 2.69006 16.1321 3.89008 16.1321 5.08008C16.1321 5.25008 16.1321 5.42004 16.1321 5.66004H15.4921C14.4921 5.66004 13.4921 5.66007 12.5521 5.76007C12.3347 5.75739 12.1189 5.79822 11.9175 5.88019C11.7161 5.96216 11.5331 6.08361 11.3794 6.23737C11.2256 6.39112 11.1042 6.57405 11.0222 6.77545C10.9402 6.97685 10.8994 7.19261 10.9021 7.41004C10.8321 8.58004 10.8421 9.75005 10.7921 10.92C10.7921 11.29 10.9521 11.36 11.2721 11.36H15.962L15.7421 13.23C15.6021 14.23 15.452 15.2301 15.342 16.3001C15.342 16.6501 15.152 16.72 14.842 16.72H11.472C10.802 16.72 10.8021 16.7201 10.8021 17.4301C10.8021 21.3167 10.8021 25.2067 10.8021 29.1C10.8021 29.31 10.8021 29.52 10.8021 29.73L5.39209 29.6801Z" fill="white"/>
</svg>
