<svg width="90" height="32" viewBox="0 0 90 32" fill="none" xmlns="http://www.w3.org/2000/svg">
<path d="M16.3 18.79L14.18 30.9C14.06 31.5 13.83 31.69 13.18 31.69H11.08C10.46 31.69 10.29 31.5 10.4 30.9L10.92 28.16C11.2456 26.4195 11.8216 24.7354 12.63 23.16H12.44C12.13 23.79 11.13 25.55 10.59 26.34L9.12 28.52C9.02452 28.6994 8.8795 28.8475 8.70221 28.9468C8.52492 29.0461 8.32282 29.0923 8.12 29.08H6.85C6.33 29.08 6.17 28.94 6.02 28.52L5.28 26.34C4.97834 25.2992 4.76097 24.2357 4.63 23.16H4.46C4.67182 24.8232 4.63137 26.5089 4.34 28.16L3.88 30.9C3.87851 31.0221 3.84976 31.1424 3.79584 31.252C3.74193 31.3616 3.66421 31.4577 3.56837 31.5335C3.47253 31.6092 3.36099 31.6625 3.24189 31.6896C3.1228 31.7167 2.99915 31.7168 2.88 31.69H0.879996C0.259996 31.69 0.109996 31.5 0.199996 30.9L2.34 18.79C2.46 18.17 2.69 17.98 3.34 17.98H5.13C5.81 17.98 6.02 18.09 6.13 18.57L8.2 24.9L12.48 18.59C12.5864 18.3739 12.7596 18.1978 12.974 18.0879C13.1883 17.978 13.4324 17.9402 13.67 17.98H15.62C16.24 17.98 16.41 18.16 16.3 18.79Z" fill="white"/>
<path d="M28 18.81L27.7 20.54C27.58 21.16 27.33 21.37 26.7 21.37H21.64L21.33 23.09H25.4C26.02 23.09 26.17 23.3 26.08 23.9L25.8 25.63C25.68 26.25 25.45 26.46 24.8 26.46H20.73L20.41 28.31H25.67C26.27 28.31 26.44 28.51 26.33 29.12L26.02 30.88C25.92 31.48 25.67 31.69 25.02 31.69H16.8C16.18 31.69 16.01 31.48 16.12 30.88L18.24 18.81C18.36 18.21 18.59 18 19.24 18H27.32C27.93 18 28.1 18.21 28 18.81Z" fill="white"/>
<path d="M33.44 18.81L31.8 28.31H36.42C37.04 28.31 37.21 28.51 37.1 29.12L36.8 30.88C36.68 31.48 36.45 31.69 35.8 31.69H28.16C27.54 31.69 27.39 31.48 27.48 30.88L29.62 18.81C29.72 18.21 29.95 18 30.62 18H32.8C33.37 18 33.54 18.21 33.44 18.81Z" fill="white"/>
<path d="M50.1 18.41L44.1 26.22L43.31 30.85C43.19 31.47 42.93 31.69 42.31 31.69H40.08C39.46 31.69 39.28 31.47 39.4 30.85L40.19 26.22L37.01 18.41C36.81 17.95 36.95 17.57 37.57 17.57H39.88C40.88 17.57 41.15 17.57 41.41 18.31L42.8 22.36L45.72 18.31C46.2 17.61 46.5 17.57 47.47 17.57H49.8C50.43 17.57 50.45 17.95 50.1 18.41Z" fill="white"/>
<path d="M63.47 17.74L63.13 19.62C63.03 20.28 62.76 20.51 62.13 20.51H59L57.18 30.81C57.05 31.46 56.8 31.69 56.18 31.69H53.8C53.14 31.69 52.95 31.46 53.07 30.81L54.89 20.51H51.8C51.13 20.51 50.96 20.28 51.07 19.62L51.4 17.74C51.53 17.09 51.78 16.86 52.4 16.86H62.74C63.4 16.86 63.59 17.09 63.47 17.74Z" fill="white"/>
<path d="M65.99 15.84H68.62C69.29 15.84 69.5 16.07 69.36 16.74L66.88 30.8C66.77 31.47 66.5 31.69 65.88 31.69H63.2C62.53 31.69 62.35 31.47 62.47 30.8L64.94 16.74C65.08 16.07 65.32 15.84 65.99 15.84Z" fill="white"/>
<path d="M86.43 15.38L80.27 22.88L84 30.67C84.26 31.2 84 31.67 83.29 31.67H80.2C78.93 31.67 78.67 31.6 78.32 30.77L76.72 26.77L73.8 30.77C73.21 31.52 72.95 31.67 71.61 31.67H68.61C67.85 31.67 67.78 31.23 68.27 30.67L74.65 22.88L71.19 15.38C70.95 14.85 71.19 14.38 71.85 14.38H74.74C75.98 14.38 76.3 14.48 76.62 15.23L78.15 18.98L80.97 15.23C81.58 14.43 81.87 14.38 82.97 14.38H86.11C86.8 14.41 86.87 14.85 86.43 15.38Z" fill="white"/>
<path d="M23.53 16.3C17.27 16.3 10.53 16.14 3.30999 15.83C3.02112 15.7936 2.75652 15.6498 2.56872 15.4273C2.38092 15.2048 2.28366 14.9199 2.29625 14.629C2.30884 14.3381 2.43037 14.0626 2.63669 13.8571C2.84302 13.6517 3.11905 13.5314 3.40999 13.52C46.99 15.43 71.5 11.73 88.01 0.770013C88.2663 0.602874 88.5783 0.543773 88.8779 0.605582C89.1776 0.667391 89.4407 0.845102 89.61 1.10001C89.7766 1.35475 89.8354 1.66517 89.7736 1.96321C89.7117 2.26126 89.5342 2.52262 89.28 2.69001C75.12 12.1 55.39 16.3 23.53 16.3Z" fill="white"/>
<path d="M69.89 7.98H67.11C66.8674 7.96609 66.6256 8.01791 66.41 8.13C66.2387 8.25723 66.1125 8.43594 66.05 8.64L65.37 12.51C65.25 13.22 65.44 13.51 66.15 13.51H68.93C69.63 13.51 69.93 13.27 70.03 12.51L70.67 8.91C70.67 8.91 70.67 8.84 70.67 8.81C70.8 8.16 70.56 7.98 69.89 7.98Z" fill="#FF3568"/>
</svg>
