<svg width="172" height="61" viewBox="0 0 172 61" fill="none" xmlns="http://www.w3.org/2000/svg">
<path d="M31.1503 35.33L27.0903 58.49C26.8703 59.63 26.4203 60 25.2403 60H21.2403C20.0603 60 19.7303 59.63 19.9503 58.49L20.8803 53.21C21.2803 50.78 21.8803 48.46 24.1603 43.55H23.7903C23.2003 44.77 21.2803 48.12 20.2503 49.64L17.4503 53.8C17.2593 54.1554 16.9675 54.4465 16.6118 54.6368C16.256 54.8272 15.852 54.9083 15.4503 54.87H13.0503C12.0503 54.87 11.7603 54.62 11.4703 53.8L10.0703 49.64C9.48541 47.6477 9.06401 45.6109 8.81031 43.55H8.48029C8.89029 48.86 8.74032 50.71 8.26032 53.25L7.37031 58.49C7.36673 58.7165 7.31386 58.9395 7.2154 59.1435C7.11694 59.3475 6.97522 59.5276 6.80012 59.6713C6.62501 59.815 6.42077 59.9188 6.20148 59.9756C5.9822 60.0324 5.75317 60.0407 5.53034 60H1.62031C0.440307 60 0.150329 59.63 0.330329 58.49L4.4203 35.33C4.6403 34.15 5.09033 33.78 6.27033 33.78H9.70032C10.9903 33.78 11.3903 34 11.7003 34.92L15.6503 47.02L23.8403 35C24.0434 34.5824 24.3762 34.2418 24.789 34.0291C25.2018 33.8163 25.6724 33.743 26.1303 33.82H29.8503C31.0003 33.78 31.3703 34.15 31.1503 35.33Z" fill="white"/>
<path d="M53.5309 35.36L52.9409 38.6801C52.7209 39.8601 52.2409 40.2701 51.1009 40.2701H41.3609L40.7709 43.55H48.5509C49.7309 43.55 50.0309 43.96 49.8409 45.1L49.2509 48.42C49.0309 49.6 48.5909 50.0001 47.4109 50.0001H39.6309L39.0009 53.55H49.0709C50.2109 53.55 50.5509 53.9101 50.3209 55.0901L49.7309 58.4501C49.5509 59.5901 49.0709 60.0001 47.8909 60.0001H32.1409C30.9609 60.0001 30.6309 59.5901 30.8509 58.4501L34.9109 35.36C35.1309 34.22 35.5709 33.8101 36.7509 33.8101H52.2009C53.3909 33.8101 53.7209 34.22 53.5309 35.36Z" fill="white"/>
<path d="M63.931 35.36L60.721 53.55H69.581C70.761 53.55 71.091 53.9101 70.871 55.0901L70.281 58.4501C70.061 59.5901 69.611 60.0001 68.431 60.0001H53.831C52.651 60.0001 52.351 59.5901 52.541 58.4501L56.631 35.36C56.811 34.22 57.261 33.8101 58.441 33.8101H62.611C63.791 33.8101 64.121 34.22 63.931 35.36Z" fill="white"/>
<path d="M95.7805 34.6L84.3704 49.54L82.8504 58.4C82.6204 59.58 82.1305 60 80.9505 60H76.6204C75.4404 60 75.0905 59.58 75.3205 58.4L76.8405 49.54L70.7605 34.6C70.3805 33.73 70.6505 33.01 71.8205 33.01H76.2404C78.1404 33.01 78.6704 33.08 79.1604 34.41L81.8604 42.17L87.4505 34.41C88.3605 33.08 88.9304 33.01 90.8004 33.01H95.2504C96.4204 33 96.4605 33.73 95.7805 34.6Z" fill="white"/>
<path d="M121.349 33.32L120.709 36.91C120.509 38.19 119.989 38.63 118.709 38.63H112.799L109.319 58.32C109.079 59.56 108.599 60 107.319 60H102.799C101.519 60 101.16 59.56 101.4 58.32L104.879 38.63H98.9295C97.6495 38.63 97.3295 38.19 97.5295 36.91L98.1695 33.32C98.4095 32.08 98.8895 31.64 100.169 31.64H119.999C121.229 31.64 121.589 32.08 121.349 33.32Z" fill="white"/>
<path d="M126.171 29.7H131.171C132.451 29.7 132.831 30.1299 132.581 31.4099L127.841 58.2899C127.631 59.5699 127.121 59.9999 125.841 59.9999H120.841C119.561 59.9999 119.221 59.5699 119.431 58.2899L124.171 31.4099C124.421 30.1299 124.891 29.7 126.171 29.7Z" fill="white"/>
<path d="M165.261 28.8199L153.481 43.15L160.601 58.0499C161.121 59.0499 160.701 60.0499 159.251 60.0499H153.341C150.921 60.0499 150.411 59.91 149.761 58.33L146.691 50.6899L141.101 58.33C139.991 59.77 139.471 60.0499 136.911 60.0499H131.141C129.701 60.0499 129.561 59.2099 130.491 58.0499L142.681 43.15L136.081 28.8199C135.611 27.8199 136.031 26.95 137.331 26.95H142.871C145.241 26.95 145.871 27.14 146.451 28.58L149.391 35.7499L154.791 28.58C155.951 27.05 156.511 26.95 158.651 26.95H164.651C166.001 27 166.101 27.7899 165.261 28.8199Z" fill="white"/>
<path d="M44.9995 30.58C32.9995 30.58 20.1895 30.27 6.33952 29.66C5.75604 29.6348 5.20645 29.3789 4.81168 28.9485C4.41692 28.5181 4.20928 27.9485 4.23447 27.365C4.25967 26.7815 4.51563 26.232 4.94602 25.8372C5.37642 25.4425 5.94604 25.2348 6.52952 25.26C89.8795 28.9 136.75 21.84 168.31 0.880018C168.796 0.556454 169.391 0.439488 169.964 0.554823C170.537 0.670158 171.041 1.00834 171.364 1.49501C171.688 1.98168 171.805 2.57693 171.69 3.14985C171.574 3.72278 171.236 4.22644 170.749 4.55C143.619 22.54 105.889 30.58 44.9995 30.58Z" fill="white"/>
<path d="M133.63 14.66H128.31C127.848 14.6307 127.388 14.7312 126.98 14.95C126.639 15.1909 126.394 15.5454 126.29 15.95L124.98 23.35C124.76 24.7 125.12 25.1501 126.47 25.1501H131.79C133.14 25.1501 133.68 24.7 133.91 23.35L135.12 16.47C135.12 16.39 135.12 16.32 135.12 16.26C135.34 15.07 134.91 14.66 133.63 14.66Z" fill="#FF3568"/>
</svg>
