<svg width="36" height="35" viewBox="0 0 36 35" fill="none" xmlns="http://www.w3.org/2000/svg">
<path d="M17.96 34.45C17.8221 34.45 17.6898 34.3952 17.5923 34.2977C17.4948 34.2001 17.44 34.0679 17.44 33.93V17.86H1.37001C1.30172 17.86 1.23409 17.8465 1.17101 17.8204C1.10792 17.7943 1.05059 17.756 1.0023 17.7077C0.954018 17.6594 0.91572 17.6021 0.889587 17.539C0.863455 17.4759 0.850006 17.4083 0.850006 17.34C0.850006 17.2717 0.863455 17.2041 0.889587 17.141C0.91572 17.0779 0.954018 17.0206 1.0023 16.9723C1.05059 16.924 1.10792 16.8857 1.17101 16.8596C1.23409 16.8334 1.30172 16.82 1.37001 16.82H17.44V0.739975C17.44 0.602062 17.4948 0.469803 17.5923 0.372284C17.6898 0.274765 17.8221 0.219971 17.96 0.219971C18.0979 0.219971 18.2302 0.274765 18.3277 0.372284C18.4252 0.469803 18.48 0.602062 18.48 0.739975V16.82H34.56C34.6979 16.82 34.8302 16.8748 34.9277 16.9723C35.0252 17.0698 35.08 17.2021 35.08 17.34C35.08 17.4779 35.0252 17.6102 34.9277 17.7077C34.8302 17.8052 34.6979 17.86 34.56 17.86H18.48V33.93C18.48 34.0679 18.4252 34.2001 18.3277 34.2977C18.2302 34.3952 18.0979 34.45 17.96 34.45Z" fill="white"/>
</svg>
