<svg width="53" height="52" viewBox="0 0 53 52" fill="none" xmlns="http://www.w3.org/2000/svg">
<path d="M26.46 51.97C40.7973 51.97 52.42 40.3473 52.42 26.01C52.42 11.6727 40.7973 0.0499878 26.46 0.0499878C12.1227 0.0499878 0.5 11.6727 0.5 26.01C0.5 40.3473 12.1227 51.97 26.46 51.97Z" fill="#7873FF"/>
<path d="M26.46 43.16C26.3221 43.16 26.1898 43.1052 26.0923 43.0077C25.9948 42.9101 25.94 42.7779 25.94 42.64V26.53H9.85999C9.7826 26.5521 9.70113 26.5559 9.62201 26.5412C9.54288 26.5265 9.46824 26.4936 9.40399 26.4451C9.33974 26.3966 9.28763 26.3339 9.25174 26.2619C9.21585 26.1898 9.19717 26.1104 9.19717 26.03C9.19717 25.9495 9.21585 25.8701 9.25174 25.7981C9.28763 25.726 9.33974 25.6633 9.40399 25.6148C9.46824 25.5664 9.54288 25.5335 9.62201 25.5187C9.70113 25.504 9.7826 25.5079 9.85999 25.53H25.94V9.41996C25.94 9.28205 25.9948 9.14979 26.0923 9.05227C26.1898 8.95475 26.3221 8.89996 26.46 8.89996C26.5979 8.89996 26.7302 8.95475 26.8277 9.05227C26.9252 9.14979 26.98 9.28205 26.98 9.41996V25.5H43.06C43.1687 25.531 43.2643 25.5966 43.3323 25.6868C43.4004 25.777 43.4372 25.887 43.4372 26C43.4372 26.113 43.4004 26.2229 43.3323 26.3131C43.2643 26.4033 43.1687 26.4689 43.06 26.5H26.98V42.61C26.9841 42.6807 26.9737 42.7516 26.9494 42.8182C26.9251 42.8848 26.8874 42.9457 26.8387 42.9972C26.79 43.0487 26.7313 43.0897 26.6662 43.1177C26.601 43.1457 26.5309 43.1601 26.46 43.16Z" fill="white"/>
</svg>
