<svg width="23" height="22" viewBox="0 0 23 22" fill="none" xmlns="http://www.w3.org/2000/svg">
<path d="M11.4691 21.5001C17.3233 21.5001 22.0692 16.7543 22.0692 10.9001C22.0692 5.04584 17.3233 0.300049 11.4691 0.300049C5.6149 0.300049 0.869141 5.04584 0.869141 10.9001C0.869141 16.7543 5.6149 21.5001 11.4691 21.5001Z" fill="white"/>
<path d="M12.3782 3.25007C14.0782 3.25007 15.0582 4.12009 15.0582 5.36009C15.0582 6.85009 13.8782 7.1701 13.2682 7.5901C13.1627 7.64266 13.073 7.7221 13.0081 7.82042C12.9431 7.91874 12.9052 8.03246 12.8982 8.1501C12.8982 8.4601 12.7882 8.55009 12.4782 8.55009H11.5682C11.2582 8.55009 11.1482 8.4601 11.1482 8.1501C11.1167 7.82389 11.1803 7.49554 11.3311 7.20457C11.4819 6.91361 11.7136 6.67243 11.9982 6.51008C12.5082 6.20008 13.0682 6.05008 13.0682 5.38008C13.0682 5.05008 12.8482 4.80009 12.3682 4.80009C11.8882 4.80009 11.5882 5.08009 11.3182 5.67009C11.1782 5.98009 11.0782 6.04008 10.7682 5.94008L9.7682 5.58009C9.4682 5.47009 9.38824 5.32007 9.49824 5.03007C9.71243 4.45566 10.1118 3.96893 10.6332 3.64662C11.1547 3.32431 11.7687 3.18479 12.3782 3.25007ZM13.0882 9.69008V10.0501C13.0882 10.6501 12.8982 10.8401 12.2982 10.8401H11.7982C11.1882 10.8401 10.9982 10.6501 10.9982 10.0501V9.69008C10.9982 9.09008 11.1882 8.9001 11.7982 8.9001H12.3082C12.8982 8.9001 13.0882 9.09008 13.0882 9.69008Z" fill="#0C0C0C"/>
<path d="M12.1896 3.06003C13.8896 3.06003 14.8696 3.93005 14.8696 5.17005C14.8696 6.65005 13.6896 6.98006 13.0796 7.40006C12.9741 7.45262 12.8844 7.53206 12.8194 7.63038C12.7544 7.7287 12.7165 7.84242 12.7095 7.96006C12.7095 8.27006 12.5895 8.36005 12.2895 8.36005H11.3796C11.0696 8.36005 10.9595 8.27006 10.9595 7.96006C10.9281 7.63385 10.9916 7.30549 11.1424 7.01453C11.2932 6.72357 11.5249 6.48239 11.8096 6.32004C12.3196 6.00004 12.8796 5.86004 12.8796 5.19004C12.8796 4.86004 12.6596 4.61005 12.1796 4.61005C11.6996 4.61005 11.3996 4.89005 11.1796 5.48005C11.0396 5.79005 10.9396 5.85004 10.6296 5.75004L9.62958 5.38004C9.32958 5.28004 9.24956 5.13005 9.35956 4.83005C9.57469 4.26745 9.96735 3.79029 10.478 3.47089C10.9887 3.1515 11.5896 3.00726 12.1896 3.06003ZM12.8995 9.50004V9.86005C12.8995 10.4601 12.7096 10.6501 12.1096 10.6501H11.5995C10.9895 10.6501 10.7996 10.4601 10.7996 9.86005V9.50004C10.7996 8.90004 10.9895 8.71006 11.5995 8.71006H12.1096C12.7096 8.71006 12.8995 8.90004 12.8995 9.50004Z" fill="#7873FF"/>
<path d="M5.28942 16.7101C5.21311 16.7072 5.13923 16.6826 5.07647 16.6391C5.0137 16.5956 4.96468 16.5351 4.93523 16.4646C4.90579 16.3941 4.89712 16.3167 4.91027 16.2415C4.92342 16.1663 4.95785 16.0964 5.00945 16.0401L9.37945 11.6701C9.44291 11.6067 9.52627 11.567 9.61553 11.5579C9.70479 11.5488 9.79447 11.5708 9.86944 11.6201L12.2994 13.2001L17.3794 8.30008C17.4147 8.25493 17.4592 8.21785 17.5099 8.19138C17.5607 8.16491 17.6166 8.14968 17.6738 8.14667C17.731 8.14366 17.7882 8.15296 17.8415 8.17395C17.8948 8.19495 17.9429 8.22713 17.9827 8.26834C18.0224 8.30956 18.0529 8.35885 18.072 8.41284C18.091 8.46684 18.0983 8.52431 18.0933 8.58136C18.0882 8.63841 18.071 8.69369 18.0427 8.7435C18.0145 8.79331 17.9758 8.8365 17.9294 8.87009L12.6194 13.9801C12.555 14.0381 12.4738 14.0742 12.3876 14.0832C12.3013 14.0922 12.2145 14.0736 12.1395 14.0301L9.7094 12.4801L5.56945 16.6201C5.49144 16.6855 5.39092 16.7178 5.28942 16.7101Z" fill="#0C0C0C"/>
<path d="M5.28888 16.51C5.23718 16.5117 5.18566 16.5028 5.13751 16.4839C5.08937 16.465 5.04564 16.4364 5.00891 16.4C4.93562 16.3252 4.89453 16.2247 4.89453 16.12C4.89453 16.0153 4.93562 15.9148 5.00891 15.84L9.37891 11.48C9.44298 11.4181 9.52542 11.3788 9.61383 11.368C9.70224 11.3572 9.79179 11.3754 9.8689 11.42L12.2989 12.97L17.3789 8.08C17.4157 8.04389 17.4592 8.01537 17.507 7.99608C17.5547 7.97679 17.6059 7.96708 17.6574 7.96755C17.7089 7.96801 17.7599 7.97861 17.8073 7.99876C17.8547 8.01892 17.8978 8.04824 17.9339 8.08501C17.97 8.12178 17.9985 8.1653 18.0178 8.21309C18.0371 8.26088 18.0468 8.312 18.0463 8.36354C18.0459 8.41508 18.0353 8.46601 18.0151 8.51344C17.995 8.56088 17.9657 8.60389 17.9289 8.64L12.6189 13.75C12.5571 13.8126 12.4754 13.8519 12.3878 13.861C12.3003 13.8701 12.2123 13.8485 12.1389 13.8L9.70886 12.26L5.56891 16.4C5.53218 16.4364 5.48839 16.465 5.44025 16.4839C5.3921 16.5028 5.34058 16.5117 5.28888 16.51Z" fill="#7873FF"/>
</svg>
