<svg width="23" height="22" viewBox="0 0 23 22" fill="none" xmlns="http://www.w3.org/2000/svg">
<path d="M11.4691 21.24C17.3233 21.24 22.0692 16.4942 22.0692 10.64C22.0692 4.78577 17.3233 0.039978 11.4691 0.039978C5.6149 0.039978 0.869141 4.78577 0.869141 10.64C0.869141 16.4942 5.6149 21.24 11.4691 21.24Z" fill="white"/>
<path d="M5.28888 13.57C5.18535 13.5682 5.08596 13.5292 5.00891 13.46C4.93562 13.3852 4.89453 13.2847 4.89453 13.18C4.89453 13.0753 4.93562 12.9748 5.00891 12.9L9.37891 8.53998C9.44113 8.47499 9.52386 8.43351 9.61316 8.42258C9.70246 8.41164 9.79283 8.43193 9.8689 8.47998L12.2989 10.03L17.3789 5.12998C17.457 5.07346 17.5528 5.04702 17.6487 5.05551C17.7447 5.064 17.8345 5.10686 17.9014 5.17621C17.9683 5.24555 18.0079 5.33672 18.0129 5.43295C18.018 5.52918 17.9882 5.624 17.9289 5.69998L12.6189 10.81C12.5545 10.868 12.4733 10.9041 12.387 10.9131C12.3008 10.9221 12.2139 10.9035 12.1389 10.86L9.70886 9.30997L5.56891 13.46C5.49186 13.5292 5.39241 13.5682 5.28888 13.57Z" fill="#0C0C0C"/>
<path d="M5.28942 16.45C5.21311 16.4472 5.13923 16.4226 5.07647 16.3791C5.0137 16.3356 4.96468 16.275 4.93523 16.2045C4.90579 16.1341 4.89712 16.0566 4.91027 15.9814C4.92342 15.9062 4.95785 15.8363 5.00945 15.78L9.37945 11.41C9.44882 11.354 9.53528 11.3235 9.62444 11.3235C9.7136 11.3235 9.80007 11.354 9.86944 11.41L12.2994 12.95L17.3794 8.06C17.4542 7.98671 17.5547 7.94568 17.6594 7.94568C17.7641 7.94568 17.8647 7.98671 17.9394 8.06C18.0127 8.13477 18.0538 8.23533 18.0538 8.34003C18.0538 8.44473 18.0127 8.54525 17.9394 8.62003L12.6294 13.72C12.5617 13.7752 12.4769 13.8054 12.3895 13.8054C12.302 13.8054 12.2172 13.7752 12.1494 13.72L9.7094 12.2L5.56945 16.34C5.53238 16.376 5.48855 16.4042 5.44048 16.4231C5.39242 16.442 5.34105 16.4511 5.28942 16.45Z" fill="#0C0C0C"/>
<path d="M5.28888 13.38C5.23654 13.3798 5.18476 13.3691 5.13666 13.3484C5.08855 13.3278 5.04514 13.2977 5.00891 13.26C4.93562 13.1852 4.89453 13.0847 4.89453 12.98C4.89453 12.8753 4.93562 12.7747 5.00891 12.7L9.37891 8.33998C9.44237 8.27656 9.52573 8.23694 9.61499 8.22783C9.70425 8.21872 9.79393 8.24066 9.8689 8.28996L12.2989 9.82997L17.3789 4.93996C17.4157 4.90384 17.4592 4.87533 17.507 4.85603C17.5547 4.83674 17.6059 4.82707 17.6574 4.82753C17.7089 4.82799 17.7599 4.8386 17.8073 4.85875C17.8547 4.8789 17.8978 4.90819 17.9339 4.94496C17.97 4.98173 17.9985 5.02525 18.0178 5.07304C18.0371 5.12084 18.0468 5.17196 18.0463 5.2235C18.0459 5.27503 18.0353 5.32599 18.0151 5.37343C17.995 5.42086 17.9657 5.46384 17.9289 5.49995L12.6189 10.61C12.5511 10.6652 12.4663 10.6954 12.3789 10.6954C12.2915 10.6954 12.2067 10.6652 12.1389 10.61L9.70886 9.06996L5.56891 13.21C5.53736 13.2569 5.49598 13.2964 5.44763 13.3258C5.39928 13.3551 5.34509 13.3736 5.28888 13.38Z" fill="#7873FF"/>
<path d="M5.28942 16.25C5.21311 16.2471 5.13923 16.2225 5.07647 16.179C5.0137 16.1355 4.96468 16.0749 4.93523 16.0045C4.90579 15.934 4.89712 15.8566 4.91027 15.7814C4.92342 15.7062 4.95785 15.6363 5.00945 15.58L9.37945 11.22C9.4406 11.1533 9.52351 11.1106 9.61333 11.0996C9.70316 11.0886 9.794 11.11 9.86944 11.16L12.2994 12.71L17.3794 7.80997C17.4147 7.76481 17.4592 7.72776 17.5099 7.7013C17.5607 7.67483 17.6166 7.65956 17.6738 7.65656C17.731 7.65355 17.7882 7.66287 17.8415 7.68387C17.8948 7.70487 17.9429 7.73705 17.9827 7.77826C18.0224 7.81947 18.0529 7.86876 18.072 7.92276C18.091 7.97676 18.0983 8.0342 18.0933 8.09125C18.0882 8.1483 18.071 8.20361 18.0427 8.25342C18.0145 8.30323 17.9758 8.34639 17.9294 8.37998L12.6194 13.49C12.5496 13.5404 12.4656 13.5676 12.3794 13.5676C12.2933 13.5676 12.2093 13.5404 12.1395 13.49L9.7094 11.94L5.56945 16.08C5.5379 16.1269 5.49652 16.1664 5.44817 16.1958C5.39982 16.2252 5.34563 16.2436 5.28942 16.25Z" fill="#7873FF"/>
</svg>
