<svg width="42" height="42" viewBox="0 0 42 42" fill="none" xmlns="http://www.w3.org/2000/svg">
    <path d="M0.699951 0.680008C0.864797 0.51635 1.08766 0.4245 1.31995 0.4245C1.55223 0.4245 1.7751 0.51635 1.93994 0.680008L21.0499 19.79L40.17 0.680008C40.3348 0.51635 40.5577 0.4245 40.79 0.4245C41.0223 0.4245 41.2451 0.51635 41.41 0.680008C41.573 0.84315 41.6646 1.06435 41.6646 1.295C41.6646 1.52565 41.573 1.74686 41.41 1.91L22.2899 21.03L41.41 40.15C41.573 40.3131 41.6646 40.5344 41.6646 40.765C41.6646 40.9957 41.573 41.2169 41.41 41.38C41.2451 41.5437 41.0223 41.6355 40.79 41.6355C40.5577 41.6355 40.3348 41.5437 40.17 41.38L21.0499 22.27L1.93994 41.38C1.7751 41.5437 1.55223 41.6355 1.31995 41.6355C1.08766 41.6355 0.864797 41.5437 0.699951 41.38C0.536906 41.2169 0.445312 40.9957 0.445312 40.765C0.445312 40.5344 0.536906 40.3131 0.699951 40.15L19.8199 21.03L0.699951 1.91C0.536906 1.74686 0.445312 1.52565 0.445312 1.295C0.445312 1.06435 0.536906 0.84315 0.699951 0.680008Z" fill="#EF5466"/>
</svg>
