<svg width="4" height="20" viewBox="0 0 4 20" fill="none" xmlns="http://www.w3.org/2000/svg">
<path d="M1.84003 3.97998C2.85623 3.97998 3.67999 3.15619 3.67999 2.13998C3.67999 1.12378 2.85623 0.299988 1.84003 0.299988C0.823823 0.299988 0 1.12378 0 2.13998C0 3.15619 0.823823 3.97998 1.84003 3.97998Z" fill="white"/>
<path d="M1.84003 11.56C2.85623 11.56 3.67999 10.7362 3.67999 9.72C3.67999 8.7038 2.85623 7.88 1.84003 7.88C0.823823 7.88 0 8.7038 0 9.72C0 10.7362 0.823823 11.56 1.84003 11.56Z" fill="white"/>
<path d="M1.84003 19.15C2.85623 19.15 3.67999 18.3262 3.67999 17.31C3.67999 16.2938 2.85623 15.47 1.84003 15.47C0.823823 15.47 0 16.2938 0 17.31C0 18.3262 0.823823 19.15 1.84003 19.15Z" fill="white"/>
</svg>
