<svg width="22" height="30" viewBox="0 0 22 30" fill="none" xmlns="http://www.w3.org/2000/svg">
<path d="M17.58 25.5L17 26.08L3.22998 15.42L3.81 14.84L17.58 25.5Z" fill="white"/>
<path d="M18.2 25.5L17 26.71L2.60999 15.42L3.81 14.21L18.2 25.5Z" fill="white"/>
<path d="M18.28 4.48997L3.81 15.42L3.22998 14.84L17.7 3.90997L18.28 4.48997Z" fill="white"/>
<path d="M18.91 4.48998L3.81 16.05L2.60999 14.84L17.7 3.28998L18.91 4.48998Z" fill="white"/>
<path d="M17.29 28.7C18.8971 28.7 20.2 27.3972 20.2 25.79C20.2 24.1829 18.8971 22.88 17.29 22.88C15.6828 22.88 14.38 24.1829 14.38 25.79C14.38 27.3972 15.6828 28.7 17.29 28.7Z" fill="#7873FF"/>
<path d="M20.64 25.79C20.642 26.4554 20.4463 27.1064 20.0779 27.6605C19.7094 28.2146 19.1848 28.6468 18.5704 28.9023C17.9561 29.1579 17.2796 29.2253 16.6269 29.0959C15.9742 28.9666 15.3746 28.6464 14.9041 28.1759C14.4336 27.7054 14.1134 27.1058 13.9841 26.4531C13.8547 25.8004 13.9221 25.1239 14.1777 24.5096C14.4332 23.8952 14.8654 23.3706 15.4195 23.0021C15.9736 22.6337 16.6246 22.438 17.29 22.44C18.1776 22.4427 19.0282 22.7964 19.6559 23.4241C20.2835 24.0518 20.6374 24.9024 20.64 25.79ZM14.82 25.79C14.818 26.279 14.9612 26.7575 15.2314 27.165C15.5016 27.5725 15.8867 27.8906 16.3378 28.0791C16.789 28.2676 17.2859 28.3179 17.7657 28.2238C18.2455 28.1296 18.6865 27.8951 19.0329 27.5501C19.3794 27.2051 19.6157 26.765 19.7118 26.2856C19.8079 25.8062 19.7596 25.309 19.5729 24.8571C19.3863 24.4052 19.0697 24.0188 18.6633 23.747C18.2569 23.4751 17.7789 23.33 17.29 23.33C16.634 23.3274 16.0036 23.5847 15.5369 24.0458C15.0702 24.5068 14.8053 25.134 14.8 25.79H14.82Z" fill="white"/>
<path d="M3.52002 18.04C5.12717 18.04 6.42999 16.7371 6.42999 15.13C6.42999 13.5228 5.12717 12.22 3.52002 12.22C1.91287 12.22 0.609985 13.5228 0.609985 15.13C0.609985 16.7371 1.91287 18.04 3.52002 18.04Z" fill="#7873FF"/>
<path d="M6.87999 15.16C6.87999 15.8245 6.68291 16.4742 6.3137 17.0267C5.9445 17.5793 5.41973 18.0099 4.80577 18.2642C4.19181 18.5185 3.51626 18.5851 2.86448 18.4554C2.21271 18.3258 1.61399 18.0058 1.14409 17.5359C0.674182 17.066 0.354177 16.4673 0.224531 15.8155C0.0948846 15.1637 0.161444 14.4881 0.415754 13.8742C0.670065 13.2602 1.10069 12.7355 1.65324 12.3662C2.20579 11.997 2.8554 11.8 3.51994 11.8C4.41107 11.8 5.26573 12.154 5.89586 12.7841C6.52598 13.4142 6.87999 14.2689 6.87999 15.16ZM1.04997 15.16C1.04997 15.6485 1.19482 16.1261 1.46623 16.5322C1.73764 16.9384 2.12342 17.255 2.57475 17.442C3.02608 17.6289 3.52268 17.6778 4.00181 17.5825C4.48095 17.4872 4.92109 17.252 5.26652 16.9065C5.61196 16.5611 5.84718 16.121 5.94249 15.6419C6.03779 15.1627 5.98887 14.6661 5.80192 14.2148C5.61498 13.7634 5.29845 13.3777 4.89226 13.1063C4.48607 12.8349 4.00846 12.69 3.51994 12.69C2.86567 12.6926 2.239 12.9537 1.77635 13.4163C1.3137 13.879 1.0526 14.5057 1.04997 15.16Z" fill="white"/>
<path d="M17.96 7.15002C19.5672 7.15002 20.87 5.84717 20.87 4.24002C20.87 2.63287 19.5672 1.33002 17.96 1.33002C16.3529 1.33002 15.05 2.63287 15.05 4.24002C15.05 5.84717 16.3529 7.15002 17.96 7.15002Z" fill="#7873FF"/>
<path d="M21.31 4.07998C21.3416 4.75472 21.1685 5.42327 20.8134 5.99788C20.4583 6.5725 19.9377 7.02634 19.3201 7.29986C18.7025 7.57338 18.0166 7.65379 17.3525 7.53056C16.6883 7.40732 16.0769 7.08618 15.5986 6.60929C15.1202 6.1324 14.7971 5.52203 14.6718 4.85827C14.5465 4.19451 14.6248 3.50837 14.8963 2.88989C15.1679 2.2714 15.6202 1.74947 16.1937 1.39256C16.7672 1.03566 17.4351 0.860473 18.11 0.889978C18.9437 0.930949 19.7326 1.2799 20.3238 1.86924C20.915 2.45858 21.2664 3.24636 21.31 4.07998ZM15.49 4.07998C15.4564 4.581 15.5763 5.08036 15.8338 5.51149C16.0912 5.94262 16.4739 6.28505 16.931 6.49312C17.388 6.70119 17.8976 6.76503 18.3918 6.67612C18.886 6.58721 19.3413 6.34978 19.6972 5.99548C20.053 5.64118 20.2925 5.18684 20.3835 4.69301C20.4746 4.19918 20.4129 3.68934 20.2068 3.23143C20.0007 2.77352 19.66 2.3893 19.23 2.12998C18.8 1.87067 18.3011 1.74857 17.8 1.77998C17.2036 1.81929 16.6415 2.07262 16.2171 2.49338C15.7927 2.91413 15.5345 3.474 15.49 4.06998V4.07998Z" fill="white"/>
</svg>
