<svg width="28" height="28" viewBox="0 0 28 28" fill="none" xmlns="http://www.w3.org/2000/svg">
<path d="M27.88 6.45003C27.884 7.12976 27.7759 7.8055 27.56 8.45003C27.2949 9.23369 26.8765 9.9567 26.329 10.5769C25.7816 11.1971 25.1161 11.7021 24.3714 12.0623C23.6267 12.4226 22.8177 12.6309 21.9916 12.6751C21.1655 12.7194 20.3389 12.5987 19.56 12.32L4.94998 26.94C4.44049 27.4005 3.77366 27.6478 3.08712 27.6309C2.40059 27.614 1.74673 27.3342 1.26048 26.8493C0.77424 26.3643 0.492718 25.7112 0.474017 25.0247C0.455316 24.3382 0.700864 23.6707 1.15998 23.16L15.8 8.54003C15.5633 7.86857 15.4416 7.16199 15.44 6.45003C15.4416 5.37389 15.7215 4.31645 16.2525 3.38042C16.7835 2.4444 17.5475 1.66161 18.4704 1.10809C19.3933 0.55456 20.4436 0.249122 21.5194 0.221427C22.5952 0.193733 23.6599 0.444728 24.61 0.950035C24.8245 1.06345 25.0316 1.19037 25.23 1.33004C26.0515 1.90685 26.7215 2.6736 27.1829 3.56506C27.6443 4.45651 27.8834 5.44626 27.88 6.45003Z" fill="white"/>
<path d="M27.88 6.45001C27.8841 7.12974 27.7759 7.80548 27.56 8.45001C27.0857 9.01595 26.4762 9.45307 25.7881 9.72095C25.0999 9.98883 24.3553 10.0788 23.6232 9.98255C22.8911 9.88627 22.195 9.60687 21.5995 9.1702C21.0041 8.73353 20.5283 8.15368 20.2164 7.48435C19.9045 6.81502 19.7665 6.07781 19.8151 5.34098C19.8637 4.60414 20.0974 3.89147 20.4945 3.26892C20.8917 2.64638 21.4395 2.13407 22.0872 1.77942C22.7349 1.42477 23.4616 1.23924 24.2 1.23999C24.5363 1.24085 24.8716 1.27775 25.2 1.35001C26.0243 1.92156 26.6984 2.68368 27.165 3.5716C27.6316 4.45951 27.8769 5.44697 27.88 6.45001Z" fill="#0C0C0C"/>
<path d="M27.88 6.45001C27.884 7.12974 27.7759 7.80548 27.56 8.45001C27.0476 8.95717 26.4182 9.33034 25.7274 9.53656C25.0366 9.74278 24.3057 9.7757 23.5992 9.63242C22.8926 9.48913 22.2322 9.17407 21.6764 8.71503C21.1205 8.25598 20.6862 7.66709 20.4119 7.0004C20.1376 6.3337 20.0317 5.60972 20.1035 4.8924C20.1754 4.17506 20.4228 3.48648 20.8239 2.88745C21.225 2.28842 21.7675 1.79738 22.4034 1.45773C23.0393 1.11809 23.7491 0.940279 24.47 0.940002H24.59C24.8045 1.05341 25.0116 1.18034 25.21 1.32001C26.0366 1.89557 26.7113 2.66296 27.1763 3.55643C27.6413 4.44989 27.8828 5.44278 27.88 6.45001Z" fill="#7873FF"/>
<path d="M3.24001 25.92C3.13589 25.9221 3.03245 25.9027 2.93612 25.8632C2.83978 25.8236 2.75261 25.7647 2.68001 25.69C2.60442 25.6156 2.54439 25.5268 2.50342 25.429C2.46244 25.3311 2.44135 25.2261 2.44135 25.12C2.44135 25.0139 2.46244 24.9089 2.50342 24.811C2.54439 24.7132 2.60442 24.6245 2.68001 24.55L16.09 11.16C16.2399 11.0088 16.4436 10.9234 16.6565 10.9224C16.8693 10.9215 17.0738 11.0052 17.225 11.155C17.3762 11.3049 17.4616 11.5086 17.4626 11.7215C17.4635 11.9343 17.3799 12.1388 17.23 12.29L3.80001 25.69C3.72705 25.7642 3.63981 25.8228 3.54356 25.8623C3.44731 25.9019 3.34405 25.9215 3.24001 25.92Z" fill="#0C0C0C"/>
<path d="M2.97999 25.92C2.87428 25.9229 2.76911 25.9039 2.67104 25.8644C2.57298 25.8248 2.48411 25.7654 2.40999 25.69C2.3344 25.6156 2.27437 25.5268 2.2334 25.429C2.19243 25.3311 2.17133 25.2261 2.17133 25.12C2.17133 25.0139 2.19243 24.9089 2.2334 24.811C2.27437 24.7132 2.3344 24.6245 2.40999 24.55L15.8 11.16C15.8742 11.0852 15.9624 11.0257 16.0596 10.9849C16.1568 10.9441 16.2611 10.9229 16.3665 10.9224C16.4718 10.922 16.5763 10.9423 16.6739 10.9822C16.7714 11.0221 16.8601 11.0808 16.935 11.155C17.0098 11.2292 17.0693 11.3174 17.1101 11.4146C17.1509 11.5118 17.1721 11.6161 17.1726 11.7215C17.173 11.8269 17.1527 11.9313 17.1128 12.0289C17.0729 12.1264 17.0142 12.2152 16.94 12.29L3.53999 25.69C3.46738 25.7647 3.38021 25.8236 3.28388 25.8632C3.18755 25.9027 3.08411 25.9221 2.97999 25.92Z" fill="#7873FF"/>
</svg>
