<svg width="30" height="28" viewBox="0 0 30 28" fill="none" xmlns="http://www.w3.org/2000/svg">
<path d="M29.31 10.84C29.2996 12.3786 28.6844 13.8514 27.5973 14.9403C26.5103 16.0292 25.0386 16.6469 23.5 16.66V5.03003C25.0369 5.04309 26.5071 5.6594 27.5939 6.74617C28.6806 7.83294 29.2969 9.30316 29.31 10.84Z" fill="#7873FF"/>
<path d="M10.87 15.4901C9.02999 18.4367 7.19333 21.3934 5.36 24.36C5.36 24.36 4.24999 25.99 4.67999 26.72C4.75275 26.8434 4.84004 26.9575 4.93999 27.06C5.14397 27.2464 5.38152 27.3924 5.63999 27.4901C5.80999 27.5701 5.63999 27.5501 5.80999 27.6001C6.13417 27.7284 6.46872 27.8287 6.80999 27.9001C7.05601 27.9631 7.31397 27.9631 7.55999 27.9001C7.99173 27.737 8.34791 27.42 8.55999 27.0101L15.19 15.42L10.87 15.4901Z" fill="#7873FF"/>
<path d="M27.58 14.96C27.045 15.4976 26.4093 15.9245 25.7092 16.2162C25.0091 16.5079 24.2584 16.6587 23.5 16.66V5.03003C24.2584 5.03134 25.0091 5.18217 25.7092 5.47388C26.4093 5.76558 27.045 6.19244 27.58 6.73004C26.8201 9.42075 26.8201 12.2693 27.58 14.96Z" fill="#0C0C0C"/>
<path d="M10.57 15.3901C8.73001 18.3501 6.89334 21.3068 5.06 24.2601C5.06 24.2601 3.95001 25.8901 4.38001 26.6201C4.45276 26.7434 4.54005 26.8576 4.64001 26.9601C4.84283 27.1505 5.08052 27.2999 5.34001 27.4001C5.70832 27.584 6.09794 27.7217 6.50001 27.8101C6.75001 27.8681 7.01 27.8681 7.26 27.8101C7.69097 27.6405 8.04613 27.3209 8.26 26.9101L14.89 15.3301L10.57 15.3901Z" fill="#0C0C0C"/>
<path d="M26.66 10.8401C26.5852 8.91201 26.9979 6.99624 27.86 5.27006C28.54 4.05006 29.66 2.74006 29.2 1.63006C29.0301 1.27926 28.7673 0.981794 28.44 0.770064C28.1455 0.610618 27.8213 0.513262 27.4876 0.484022C27.154 0.454783 26.8178 0.494282 26.5 0.600066C25.4203 1.0084 24.4088 1.57822 23.5 2.29007C21.4484 3.52438 19.1577 4.30837 16.78 4.59006C13.78 5.00006 12.78 4.67006 9.98002 4.86006C8.20631 4.83494 6.44643 5.17535 4.81002 5.86006C4.00678 6.15989 3.27319 6.62052 2.65418 7.21374C2.03516 7.80697 1.54375 8.5203 1.21002 9.31006C1.04432 9.80632 0.963192 10.3269 0.970022 10.8501C0.963017 11.3765 1.04414 11.9004 1.21002 12.4001C1.54375 13.1898 2.03516 13.9032 2.65418 14.4964C3.27319 15.0896 4.00678 15.5502 4.81002 15.8501C6.44643 16.5348 8.20631 16.8752 9.98002 16.8501C12.75 17.0401 13.76 16.7101 16.78 17.1201C19.1577 17.4018 21.4484 18.1857 23.5 19.4201C24.4088 20.1319 25.4203 20.7017 26.5 21.1101C26.8178 21.2158 27.154 21.2553 27.4876 21.2261C27.8213 21.1969 28.1455 21.0995 28.44 20.9401C28.7673 20.7283 29.0301 20.4309 29.2 20.0801C29.66 18.9701 28.54 17.6601 27.86 16.4401C26.9938 14.7046 26.5809 12.7781 26.66 10.8401Z" fill="white"/>
<path d="M10.32 15.3C8.48 18.26 6.64 21.2134 4.8 24.16C4.8 24.16 3.69 25.79 4.12 26.52C4.19275 26.6434 4.28004 26.7575 4.38 26.86C4.58549 27.0469 4.82249 27.1959 5.07999 27.3C5.44566 27.4879 5.83627 27.6226 6.23999 27.7C6.48876 27.7681 6.75123 27.7681 7 27.7C7.42978 27.5337 7.78495 27.2176 8 26.81L14.63 15.16L10.32 15.3Z" fill="white"/>
</svg>