<svg width="30" height="31" viewBox="0 0 30 31" fill="none" xmlns="http://www.w3.org/2000/svg">
<path d="M14.8805 30.49C23.0654 30.49 29.7004 23.8548 29.7004 15.67C29.7004 7.48512 23.0654 0.849976 14.8805 0.849976C6.69563 0.849976 0.0605469 7.48512 0.0605469 15.67C0.0605469 23.8548 6.69563 30.49 14.8805 30.49Z" fill="#1C1C1C"/>
<path d="M23.3307 13.66C23.3359 14.1159 23.2501 14.5683 23.0784 14.9907C22.9067 15.4131 22.6525 15.797 22.3307 16.12C21.6806 16.7615 20.8039 17.1208 19.8906 17.12V10.2C20.8067 10.2053 21.6837 10.5715 22.3314 11.2192C22.9792 11.867 23.3455 12.744 23.3507 13.66H23.3307Z" fill="#7873FF"/>
<path d="M12.3404 16.43C11.2504 18.19 10.1503 19.95 9.06033 21.72C9.06033 21.72 8.40029 22.72 8.65029 23.12C8.69484 23.1963 8.74861 23.2668 8.81033 23.33C8.9363 23.4375 9.07797 23.5252 9.23037 23.59C9.33037 23.59 9.23035 23.59 9.33035 23.65C9.52148 23.7268 9.71884 23.7871 9.92031 23.83C10.0684 23.8642 10.2222 23.8642 10.3703 23.83C10.6243 23.7249 10.8332 23.5337 10.9604 23.29L14.9103 16.39L12.3404 16.43Z" fill="#7873FF"/>
<path d="M22.3092 16.12C21.6591 16.7615 20.7824 17.1208 19.8691 17.12V10.2C20.32 10.1988 20.7668 10.2865 21.1837 10.4581C21.6007 10.6297 21.9798 10.8818 22.2992 11.2C22.0611 11.9945 21.9465 12.8208 21.9592 13.65C21.9424 14.4868 22.0606 15.3209 22.3092 16.12Z" fill="#0C0C0C"/>
<path d="M12.1605 16.37C11.0705 18.14 9.97049 19.9 8.88049 21.66C8.88049 21.66 8.22059 22.66 8.48059 23.07C8.52505 23.1407 8.57512 23.2076 8.63049 23.27C8.75384 23.3811 8.89613 23.4691 9.05053 23.53C9.26798 23.6423 9.50025 23.7232 9.74047 23.77C9.88794 23.809 10.0431 23.809 10.1905 23.77C10.4434 23.6682 10.6522 23.4805 10.7805 23.24L14.7805 16.33L12.1605 16.37Z" fill="#0C0C0C"/>
<path d="M21.7993 13.66C21.7511 12.5111 21.9953 11.3688 22.5093 10.3401C22.9193 9.61007 23.5894 8.83005 23.3094 8.17005C23.2107 7.96083 23.0547 7.78395 22.8594 7.66004C22.6829 7.56581 22.489 7.50838 22.2896 7.49119C22.0902 7.474 21.8894 7.49741 21.6994 7.56004C21.0465 7.79449 20.4353 8.13211 19.8893 8.56004C19.0548 9.07031 18.1479 9.4513 17.1994 9.69004C16.7688 9.8003 16.331 9.88052 15.8893 9.93006C14.0893 10.1801 13.4893 9.93004 11.8893 10.1C10.8297 10.0817 9.77769 10.2825 8.79935 10.69C8.32063 10.8658 7.88344 11.1387 7.51517 11.4914C7.1469 11.8442 6.8555 12.2693 6.65933 12.7401C6.47293 13.3426 6.47293 13.9875 6.65933 14.5901C6.85856 15.0589 7.15096 15.4824 7.51883 15.8348C7.8867 16.1872 8.32238 16.4611 8.79935 16.6401C9.77907 17.0429 10.8301 17.2436 11.8893 17.23C13.5393 17.34 14.1393 17.1501 15.8893 17.3901C16.331 17.4396 16.7688 17.5198 17.1994 17.63C18.1479 17.8738 19.0545 18.2581 19.8893 18.7701C20.4398 19.1912 21.0499 19.5282 21.6994 19.7701C21.8894 19.8327 22.0902 19.8561 22.2896 19.8389C22.489 19.8217 22.6829 19.7643 22.8594 19.6701C23.0496 19.5403 23.2043 19.3649 23.3094 19.16C23.5894 18.5 22.9193 17.7101 22.5093 16.9901C21.9957 15.9576 21.7515 14.8121 21.7993 13.66Z" fill="white"/>
<path d="M12.0101 16.32L8.73021 21.6C8.73021 21.6 8.07019 22.6 8.33019 23.01C8.37162 23.0827 8.42204 23.1499 8.48021 23.2101C8.60102 23.3245 8.74387 23.4129 8.90013 23.47C9.11758 23.5846 9.34982 23.6687 9.5902 23.72C9.73772 23.7586 9.89262 23.7586 10.0401 23.72C10.2969 23.6246 10.5078 23.4351 10.6301 23.19L14.6301 16.28L12.0101 16.32Z" fill="white"/>
</svg>
