<svg width="121" height="121" viewBox="0 0 121 121" fill="none" xmlns="http://www.w3.org/2000/svg">
<path d="M119.29 59.9899H60.95V1.64993C60.9629 1.53124 60.9507 1.41117 60.9141 1.29752C60.8776 1.18386 60.8175 1.0792 60.7377 0.990326C60.658 0.90145 60.5605 0.830372 60.4514 0.781708C60.3424 0.733044 60.2244 0.707886 60.105 0.707886C59.9856 0.707886 59.8675 0.733044 59.7585 0.781708C59.6495 0.830372 59.5519 0.90145 59.4722 0.990326C59.3925 1.0792 59.3324 1.18386 59.2958 1.29752C59.2593 1.41117 59.247 1.53124 59.26 1.64993V59.9899H0.919983C0.711721 60.0126 0.519171 60.1114 0.379288 60.2674C0.239405 60.4233 0.162048 60.6254 0.162048 60.8349C0.162048 61.0444 0.239405 61.2465 0.379288 61.4025C0.519171 61.5584 0.711721 61.6572 0.919983 61.6799H59.26V120.02C59.2827 120.228 59.3815 120.421 59.5374 120.561C59.6934 120.701 59.8955 120.778 60.105 120.778C60.3145 120.778 60.5166 120.701 60.6725 120.561C60.8285 120.421 60.9273 120.228 60.95 120.02V61.6799H119.29C119.409 61.6929 119.529 61.6806 119.642 61.6441C119.756 61.6075 119.861 61.5474 119.95 61.4677C120.038 61.388 120.11 61.2904 120.158 61.1814C120.207 61.0724 120.232 60.9543 120.232 60.8349C120.232 60.7155 120.207 60.5975 120.158 60.4885C120.11 60.3794 120.038 60.2819 119.95 60.2022C119.861 60.1225 119.756 60.0624 119.642 60.0258C119.529 59.9892 119.409 59.977 119.29 59.9899Z" fill="white"/>
</svg>
