<svg width="28" height="29" viewBox="0 0 28 29" fill="none" xmlns="http://www.w3.org/2000/svg">
<path d="M12.98 2.45001H3.59999C2.84888 2.45001 2.23999 3.05891 2.23999 3.81001V13.19C2.23999 13.9411 2.84888 14.55 3.59999 14.55H12.98C13.7311 14.55 14.34 13.9411 14.34 13.19V3.81001C14.34 3.05891 13.7311 2.45001 12.98 2.45001Z" fill="#7873FF"/>
<path d="M12.74 2.44999V11.59C12.74 11.7686 12.7048 11.9454 12.6365 12.1104C12.5681 12.2754 12.4679 12.4254 12.3417 12.5517C12.2154 12.6779 12.0654 12.7781 11.9004 12.8465C11.7354 12.9148 11.5586 12.95 11.38 12.95H2.23999V3.79999C2.23999 3.62186 2.27523 3.44549 2.3437 3.28104C2.41217 3.1166 2.5125 2.96733 2.63892 2.84184C2.76534 2.71635 2.91535 2.61712 3.0803 2.54986C3.24524 2.48261 3.42186 2.44867 3.59999 2.44999H12.74Z" fill="#0C0C0C"/>
<path d="M11.11 0.580017H1.73C0.978888 0.580017 0.369995 1.18891 0.369995 1.94002V11.32C0.369995 12.0711 0.978888 12.68 1.73 12.68H11.11C11.8611 12.68 12.47 12.0711 12.47 11.32V1.94002C12.47 1.18891 11.8611 0.580017 11.11 0.580017Z" fill="white"/>
<path d="M12.98 15.91H3.59999C2.84888 15.91 2.23999 16.5189 2.23999 17.27V26.65C2.23999 27.4011 2.84888 28.01 3.59999 28.01H12.98C13.7311 28.01 14.34 27.4011 14.34 26.65V17.27C14.34 16.5189 13.7311 15.91 12.98 15.91Z" fill="white"/>
<path d="M26.52 15.91H17.14C16.3889 15.91 15.78 16.5189 15.78 17.27V26.65C15.78 27.4011 16.3889 28.01 17.14 28.01H26.52C27.2711 28.01 27.88 27.4011 27.88 26.65V17.27C27.88 16.5189 27.2711 15.91 26.52 15.91Z" fill="white"/>
<path d="M26.52 2.45001H17.14C16.3889 2.45001 15.78 3.05891 15.78 3.81001V13.19C15.78 13.9411 16.3889 14.55 17.14 14.55H26.52C27.2711 14.55 27.88 13.9411 27.88 13.19V3.81001C27.88 3.05891 27.2711 2.45001 26.52 2.45001Z" fill="white"/>
</svg>